<?xml version="1.0" encoding="utf-8"?>
<!-- Generator: Adobe Illustrator 21.0.0, SVG Export Plug-In . SVG Version: 6.00 Build 0)  -->
<svg version="1.1" id="Слой_1" xmlns="http://www.w3.org/2000/svg" xmlns:xlink="http://www.w3.org/1999/xlink" x="0px" y="0px"
	 viewBox="0 0 1000 1000" style="enable-background:new 0 0 1000 1000;" xml:space="preserve">
<style type="text/css">
	.st0{fill-rule:evenodd;clip-rule:evenodd;fill:#FFFFFF;}
	.st1{fill:#FFFFFF;}
</style>
<path class="st0" d="M326.2,50.7C176.4,50.7,54.9,172.2,54.9,322c0,149.8,121.4,271.3,271.3,271.3c149.8,0,271.2-121.4,271.2-271.3
	C597.4,172.2,476,50.7,326.2,50.7z M326.2,543.9c-122.6,0-221.9-99.4-221.9-221.9c0-122.6,99.4-221.9,221.9-221.9
	S548.1,199.4,548.1,322C548.1,444.6,448.8,543.9,326.2,543.9z"/>
<path class="st0" d="M301.5,149.4h49.3v221.9h-49.3V149.4z"/>
<path class="st0" d="M326.1,328.3l121.5,74L422.9,445l-121.5-74L326.1,328.3z"/>
<path class="st1" d="M614,950.7c-17.1,0-30.6-13.5-30.6-30.4v-13.6c0-17,13.5-30.4,30.6-30.4h301.6c17.1,0,30.6,13.4,30.6,30.4v13.6
	c0,17-13.5,30.4-30.6,30.4H614z"/>
<path class="st1" d="M614,584c-17.1,0-30.6-13.5-30.6-30.4V540c0-17,13.5-30.4,30.6-30.4h301.6c17.1,0,30.6,13.5,30.6,30.4v13.6
	c0,17-13.5,30.4-30.6,30.4H614z"/>
<path class="st1" d="M614,763.8c-17.1,0-30.6-13.5-30.6-30.4v-13.6c0-17,13.5-30.4,30.6-30.4h301.6c17.1,0,30.6,13.4,30.6,30.4v13.6
	c0,17-13.5,30.4-30.6,30.4H614z"/>
<path class="st1" d="M178,950.7c-17.1,0-30.6-13.5-30.6-30.4v-13.6c0-17,13.5-30.4,30.6-30.4h301.6c17.1,0,30.6,13.4,30.6,30.4v13.6
	c0,17-13.5,30.4-30.6,30.4H178z"/>
<path class="st1" d="M178,763.8c-17.1,0-30.6-13.5-30.6-30.4v-13.6c0-17,13.5-30.4,30.6-30.4h301.6c17.1,0,30.6,13.4,30.6,30.4v13.6
	c0,17-13.5,30.4-30.6,30.4H178z"/>
</svg>
