<?xml version="1.0" encoding="utf-8"?>
<!-- Generator: Adobe Illustrator 21.0.0, SVG Export Plug-In . SVG Version: 6.00 Build 0)  -->
<svg version="1.1" id="Слой_1" xmlns="http://www.w3.org/2000/svg" xmlns:xlink="http://www.w3.org/1999/xlink" x="0px" y="0px"
	 viewBox="0 0 1000 1000" style="enable-background:new 0 0 1000 1000;" xml:space="preserve">
<style type="text/css">
	.st0{fill:#FFFFFF;}
</style>
<path class="st0" d="M345.7,121.9l-139.3,33c-6.7,1.6-12.5,6.6-15.1,13l-53.6,131.8c-3.4,8.5-0.8,19.1,6,25.1l353.7,307.6
	c5.1,4.5,12.2,6.3,18.8,4.8l225.1-54.9c11.7-2.9,19.2-17.3,15.1-28.8l-53.6-153.8c-1.4-3.9-3.8-7.4-7-10L363.5,126
	C357,121.3,352.3,121.2,345.7,121.9L345.7,121.9z M345.4,167.2l300.8,238.9L549,427.4L257,188.2L345.4,167.2z M219.1,213.2
	l300.4,246.5l-22.4,114.7L183.3,301.8L219.1,213.2z M190.6,380.1l-70,16.5c-6.7,1.6-12.5,6.6-15.1,13L52,541.4
	c-3.4,8.5-0.8,19.1,6,25.1l353.7,307.6c5.1,4.5,12.2,6.3,18.8,4.8l225.1-54.9c11.7-2.9,19.2-17.3,15.1-28.8L617,641.3
	c-2.9-7-7.1-10-12.7-14.4l-53.6,13.1l9.7,7.9l-97.1,21.3L171.2,429.8l60.3-14.4L190.6,380.1z M672.9,444.9l35.2,99.9L539,586
	l22.8-116.7L672.9,444.9z M133.4,454.9l300.4,246.5L411.4,816L97.5,543.5L133.4,454.9z M721.2,604.9c-8.7,1.9-15.7,9.9-16.7,18.9
	L683,788.6c-1.9,14,12.7,27.6,26.1,24.4L934.2,758c11.5-2.8,19-16.7,15.4-28.2l-42.9-142.8c-2.8-9.1-11.8-15.7-21.1-15.4
	C831.2,581.4,775.7,593.7,721.2,604.9L721.2,604.9z M871.5,619L902,720.6l-172.8,41.9l15.4-117.4L871.5,619z M587.2,686.6l35.2,99.9
	l-169.1,41.2L476,711L587.2,686.6z"/>
</svg>
