<?xml version="1.0" encoding="utf-8"?>
<!-- Generator: Adobe Illustrator 21.0.0, SVG Export Plug-In . SVG Version: 6.00 Build 0)  -->
<svg version="1.1" id="Слой_1" xmlns="http://www.w3.org/2000/svg" xmlns:xlink="http://www.w3.org/1999/xlink" x="0px" y="0px"
	 viewBox="0 0 1000 1000" style="enable-background:new 0 0 1000 1000;" xml:space="preserve">
<style type="text/css">
	.st0{fill:#FFFFFF;}
</style>
<path class="st0" d="M479.5,59.9c-60.9,65.1-142.4,153.4-209.3,248.2C203.2,402.8,149,503.8,149,600.6c0,58,21.6,141.8,76.3,215.3
	c54.7,73.5,145.5,134.7,275.2,134.7c129.7,0,220.5-61.2,275.2-134.7c54.7-73.6,76.3-157.3,76.3-215.3c0-97.4-57.1-198-124.9-292.5
	S578.7,125.3,524.7,61.2C507.1,46.8,496.4,48,479.5,59.9L479.5,59.9z M500.8,125.9c53.5,62.3,119.9,137,177.3,216.9
	c65,90.5,113.6,185.2,113.6,257.8c0,42-18.6,117.9-64.3,179.4c-45.7,61.5-115.6,110.6-226.9,110.6c-111.3,0-181.2-49.2-226.9-110.6
	c-45.7-61.5-64.3-137.4-64.3-179.4c0-73.2,46.3-167.5,110.2-257.8C376.1,262.6,443.6,187.6,500.8,125.9L500.8,125.9z M259.5,560.6
	c-60.3,80,60.3,310,231,270C339.8,760.6,279.6,560.6,259.5,560.6z"/>
</svg>
