<?xml version="1.0" encoding="utf-8"?>
<!-- Generator: Adobe Illustrator 21.0.0, SVG Export Plug-In . SVG Version: 6.00 Build 0)  -->
<svg version="1.1" id="Слой_1" xmlns="http://www.w3.org/2000/svg" xmlns:xlink="http://www.w3.org/1999/xlink" x="0px" y="0px"
	 viewBox="0 0 1000 1000" style="enable-background:new 0 0 1000 1000;" xml:space="preserve">
<style type="text/css">
	.st0{fill:#431A2D;}
</style>
<path class="st0" d="M761.5,354h-201v-58.6c0-12-10.5-22.5-22.5-22.5h-9v-66.1c0-12-10.5-22.5-22.5-22.5H346V73
	c0-12-10.5-22.5-22.5-22.5C311.5,50.5,301,61,301,73v111.2h-31.5c-12,0-22.5,10.5-22.5,22.5v66.1h-9c-12,0-22.5,10.5-22.5,22.5V928
	c0,12,10.5,22.5,22.5,22.5h85.5h129H538h225c12,0,22.5-10.5,22.5-22.5V376.5C784,364.5,775,354,761.5,354z M292,227.8h192v43.6H292
	V227.8z M430,905.4h-84V741.7h84V905.4z M515.5,376.5v528.9H475V719.1c0-12-10.5-22.5-22.5-22.5h-129c-12,0-22.5,10.5-22.5,22.5
	v186.3h-40.5V317.9h9h237h9V376.5z M739,453.2h-81c-12,0-22.5,10.5-22.5,22.5c0,12,10.5,22.5,22.5,22.5h81v48.1h-81
	c-12,0-22.5,10.5-22.5,22.5c0,12,10.5,22.5,22.5,22.5h81v48.1h-81c-12,0-22.5,10.5-22.5,22.5c0,12,10.5,22.5,22.5,22.5h81v48.1h-81
	c-12,0-22.5,10.5-22.5,22.5c0,12,10.5,22.5,22.5,22.5h81v127.7H560.5V399.1h180v54.1H739z"/>
</svg>
