<?xml version="1.0" encoding="utf-8"?>
<!-- Generator: Adobe Illustrator 21.0.0, SVG Export Plug-In . SVG Version: 6.00 Build 0)  -->
<svg version="1.1" id="Слой_1" xmlns="http://www.w3.org/2000/svg" xmlns:xlink="http://www.w3.org/1999/xlink" x="0px" y="0px"
	 viewBox="0 0 1000 1000" style="enable-background:new 0 0 1000 1000;" xml:space="preserve">
<style type="text/css">
	.st0{fill:#431A2D;}
</style>
<path class="st0" d="M800.5,639.8V211.2c0-11.8-9.6-21.4-21.4-21.4H71.9c-11.8,0-21.4,9.6-21.4,21.4v428.6
	c0,11.8,9.6,21.4,21.4,21.4h707.1C790.9,661.2,800.5,651.6,800.5,639.8z M757.6,618.4H93.4V232.6h664.3V618.4z"/>
<path class="st0" d="M425.5,564.8c77.1,0,139.3-62.1,139.3-139.3c0-77.1-62.1-139.3-139.3-139.3c-77.1,0-139.3,62.1-139.3,139.3
	C286.2,502.6,348.4,564.8,425.5,564.8z M425.5,329.1c53.6,0,96.4,42.9,96.4,96.4c0,53.6-42.9,96.4-96.4,96.4s-96.4-42.9-96.4-96.4
	C329.1,371.9,371.9,329.1,425.5,329.1z"/>
<path class="st0" d="M146.9,714.8c0,11.8,9.6,21.4,21.4,21.4h685.7c11.8,0,21.4-9.6,21.4-21.4V307.6c0-11.8-9.6-21.4-21.4-21.4
	c-11.8,0-21.4,9.6-21.4,21.4v385.7H168.4C156.6,693.4,146.9,703,146.9,714.8z"/>
<path class="st0" d="M929.1,361.2c-11.8,0-21.4,9.6-21.4,21.4v385.7H243.4c-11.8,0-21.4,9.6-21.4,21.4c0,11.8,9.6,21.4,21.4,21.4
	h685.7c11.8,0,21.4-9.6,21.4-21.4V382.6C950.5,370.9,940.9,361.2,929.1,361.2z"/>
<path class="st0" d="M650.5,575.5c35.4,0,64.3-28.9,64.3-64.3c0-35.4-28.9-64.3-64.3-64.3c-35.4,0-64.3,28.9-64.3,64.3
	C586.2,546.6,615.1,575.5,650.5,575.5z M650.5,489.8c11.8,0,21.4,9.6,21.4,21.4c0,11.8-9.6,21.4-21.4,21.4
	c-11.8,0-21.4-9.6-21.4-21.4C629.1,499.4,638.7,489.8,650.5,489.8z"/>
<path class="st0" d="M200.5,404.1c35.4,0,64.3-28.9,64.3-64.3s-28.9-64.3-64.3-64.3c-35.4,0-64.3,28.9-64.3,64.3
	S165.1,404.1,200.5,404.1z M200.5,318.4c11.8,0,21.4,9.6,21.4,21.4c0,11.8-9.6,21.4-21.4,21.4c-11.8,0-21.4-9.6-21.4-21.4
	C179.1,328,188.7,318.4,200.5,318.4z"/>
</svg>
