<svg id="Слой_1" data-name="Слой 1" xmlns="http://www.w3.org/2000/svg" viewBox="0 0 128 31"><defs><style>.cls-1{fill:#aaa;}</style></defs><title>logo</title><path class="cls-1" d="M108.59,16.46h-5v5.31c0,.71.09.9.73,1v.41h-4.22v-.41c.64-.15.73-.34.73-1V11.56c0-.71-.09-.9-.73-1.05V10.1h4.22v.41c-.64.15-.73.34-.73,1.05v4h5v-4c0-.71-.09-.9-.73-1.05V10.1h4.22v.41c-.64.15-.73.34-.73,1.05v10.2c0,.71.09.9.73,1v.41h-4.22v-.41c.64-.15.73-.34.73-1Zm-67.34,5,.4.79a8.15,8.15,0,0,1-4.39,1.2c-3.85,0-6.07-2.1-6.07-6.62,0-4.33,1.78-7,6.33-7a10.57,10.57,0,0,1,3.74.6c0,.88,0,1.86,0,2.74h-.83l-.22-.82c-.29-1-.86-1.65-2.6-1.65-2.74,0-3.43,2.07-3.43,5.61,0,3.38.68,5.89,3.85,5.89a6.53,6.53,0,0,0,3.21-.77M47,14.81H46.3V11.69c0-.56.11-.77.92-.77H49c1.67,0,2.13.13,2.53,1.48l.17.54h.7c0-1,0-1.89,0-2.85H42.82v.41c.64.15.74.34.74,1.05v10.2c0,.71-.09.9-.74,1v.41H48c3.14,0,5.09-.86,5.09-4.39s-2.5-4-6-4m.8,7.6h-.38a.93.93,0,0,1-1.14-1.15V15.63h1.12c2.17,0,2.74,1.2,2.74,3.34s-.66,3.43-2.33,3.43M58.61,10.93c-.55,0-.64.15-.64.6V15.6h1.7a5,5,0,0,0,2.28-.4v1.65a5,5,0,0,0-2.28-.39H58v4.89c0,.79.31,1,2,1h.37c1.67,0,2.11-.11,2.48-1.74l.11-.49h.81c0,1,0,2,0,3.06H54.48v-.41c.64-.15.73-.34.73-1V11.56c0-.71-.09-.9-.73-1.05V10.1h9c0,1,0,1.89,0,2.85h-.7l-.16-.54c-.4-1.35-.86-1.48-2.53-1.48H58.61ZM70.7,10.1H65.38v.41c.64.15.73.34.73,1.05v10.2c0,.71-.09.9-.73,1v.41H69.6v-.41c-.65-.15-.74-.34-.74-1V18h1.28c3.1,0,5-1,5-4.16S73.25,10.1,70.7,10.1m-.53,7.11h-1.3V11.64c0-.62.26-.71.81-.71H70c1.72,0,2.31,1.11,2.31,2.83,0,2-.4,3.45-2.11,3.45m10.35-2.4H79.8V11.69c0-.56.11-.77.92-.77h1.76c1.67,0,2.13.13,2.53,1.48l.16.54h.7c0-1,0-1.89,0-2.85H76.32v.41c.64.15.73.34.73,1.05v10.2c0,.71-.09.9-.73,1v.41h5.14c3.14,0,5.08-.86,5.08-4.39s-2.5-4-6-4m.8,7.59h-.39a.93.93,0,0,1-1.14-1.15V15.63h1.12c2.16,0,2.73,1.2,2.73,3.34S83,22.4,81.33,22.4m16.46-2.49-2.7-7.86a8,8,0,0,1-.48-1.95H90.94v.41a.75.75,0,0,1,.73.76h0a5.91,5.91,0,0,1-.62,2.12l-2.37,6a28.87,28.87,0,0,1-1.78,3.87h2.33a16.22,16.22,0,0,1,.28-1.62c.16-.75.48-1.82.9-3.13h4.07L95,20.15a24.6,24.6,0,0,1,.86,3.08h3.26a23.64,23.64,0,0,1-1.38-3.32M90.7,17.6l1.78-5.29,1.73,5.29ZM7.52,21.92,0,17.52c0,.26,0,.51,0,.77a13,13,0,0,0,.21,2.36,12.66,12.66,0,0,0,5,8A12.3,12.3,0,0,0,8.32,30.3a11.45,11.45,0,0,0,1.34.39,12,12,0,0,0,2.71.31H13c.33,0,.65,0,1-.09a12.19,12.19,0,0,0,4.66-1.61,12.32,12.32,0,0,0,2-1.48,12.72,12.72,0,0,0,3.92-7c0-.24.09-.48.12-.72a13,13,0,0,0,.11-1.72v-.18a13.5,13.5,0,0,0-.14-1.73,13,13,0,0,0-1.22-3.86Zm0-3.18-7-4.1c-.09.28-.16.57-.23.87s-.07.35-.11.52l7.3,4.29L22.7,11.41l-.07-.11L22.39,11,22,10.45l-.12-.15Zm0-3.18L1.63,12.1A12.75,12.75,0,0,0,1,13.33l6.49,3.82L20.95,9.26a12.83,12.83,0,0,0-1.09-1Zm0-3.18L3.22,9.86a12.58,12.58,0,0,0-.86,1.08l5.15,3L18.6,7.45a12.29,12.29,0,0,0-1.44-.74Zm116,4.88A56.46,56.46,0,0,0,128,23h-4.31a23.81,23.81,0,0,0-2.11-3.9l-1.95-3,2.07-2.32a28.83,28.83,0,0,0,2.89-3.93h3v0a25.9,25.9,0,0,0-4.05,3.3l-1.74,1.63ZM32.18,27.82H128V26.51H32.19v1.31Zm83-22-.17.49,3.07-1.13c.28,0,.7,0,.6.7l-4.88,15.08a2.42,2.42,0,0,1-.64,1,2.22,2.22,0,0,1-.9.57,11,11,0,0,1-1.47.22l-1.54.14-.15.33h11.37l.07-.3a14.31,14.31,0,0,1-1.43-.18,4.46,4.46,0,0,1-1.19-.3,1,1,0,0,1-.43-.41,1.14,1.14,0,0,1-.13-.7,2.46,2.46,0,0,1,0-.27,2,2,0,0,1,.07-.27l5.4-16.41q.2-.64.75-2.19L124.44,0Z" transform="translate(0 0)"/></svg>