<svg id="Слой_1" data-name="Слой 1" xmlns="http://www.w3.org/2000/svg" viewBox="0 0 24.73 24.28"><defs><style>.cls-1{fill:#aaa;}</style></defs><title>logo-inner</title><path id="Shape_1_copy" data-name="Shape 1 copy" class="cls-1" d="M7.52,15.2,0,10.8c0,.26,0,.52,0,.77a13,13,0,0,0,.21,2.36,12.66,12.66,0,0,0,5,8,12.33,12.33,0,0,0,3.12,1.65A11.52,11.52,0,0,0,9.65,24a12,12,0,0,0,2.71.31H13c.32,0,.65,0,1-.09a12.23,12.23,0,0,0,6.66-3.09,12.71,12.71,0,0,0,3.91-7c0-.24.09-.48.12-.72a13,13,0,0,0,.11-1.72v-.18a13.5,13.5,0,0,0-.14-1.72,13,13,0,0,0-1.22-3.86Zm0-3.18-7-4.1c-.09.28-.16.57-.23.87s-.07.35-.11.52l7.31,4.29L22.69,4.68l-.07-.11-.23-.34L22,3.72l-.12-.15Zm0-3.18L1.63,5.38A12.69,12.69,0,0,0,1,6.61l6.49,3.82L20.95,2.54a13.52,13.52,0,0,0-1.09-1Zm0-3.18L3.22,3.14a12.77,12.77,0,0,0-.86,1.08l5.16,3L18.6.74A12.25,12.25,0,0,0,17.16,0Z" transform="translate(0 0)"/></svg>