<?xml version="1.0" encoding="utf-8"?>
<!-- Generator: Adobe Illustrator 21.0.0, SVG Export Plug-In . SVG Version: 6.00 Build 0)  -->
<svg version="1.1" id="Слой_1" xmlns="http://www.w3.org/2000/svg" xmlns:xlink="http://www.w3.org/1999/xlink" x="0px" y="0px"
	 viewBox="0 0 1000 1000" style="enable-background:new 0 0 1000 1000;" xml:space="preserve">
<style type="text/css">
	.st0{fill-rule:evenodd;clip-rule:evenodd;}
</style>
<g>
	<path class="st0" d="M300,60.9l229,229c14.6,14.6,14.6,38.2,0,52.7c-14.6,14.6-38.2,14.6-52.7,0l-229-229
		c-14.6-14.6-14.6-38.2,0-52.7C261.9,46.4,285.5,46.4,300,60.9z"/>
	<path class="st0" d="M700,60.9l-229,229c-14.6,14.6-14.6,38.2,0,52.7c14.6,14.6,38.2,14.6,52.7,0l229-229
		c14.6-14.6,14.6-38.2,0-52.7C738.1,46.4,714.5,46.4,700,60.9z"/>
</g>
</svg>
